<svg width="24" height="24" viewBox="0 0 24 24" fill="none" xmlns="http://www.w3.org/2000/svg">
<path d="M8.79841 2.22192H4.23435C3.01248 2.22192 2.00623 3.22817 2.00623 4.45005V9.01411C2.00623 10.236 3.01248 11.2422 4.23435 11.2422H8.79841C10.0203 11.2422 11.0265 10.236 11.0265 9.01411V4.48599C11.0625 3.22817 10.0562 2.22192 8.79841 2.22192ZM9.44529 9.05005C9.44529 9.40942 9.15779 9.69692 8.79841 9.69692H4.23435C3.87498 9.69692 3.58748 9.40942 3.58748 9.05005V4.48599C3.58748 4.12661 3.87498 3.83911 4.23435 3.83911H8.79841C9.15779 3.83911 9.44529 4.12661 9.44529 4.48599V9.05005Z" fill="#969696"/>
<path d="M20.7656 2.22192H16.2015C14.9796 2.22192 13.9734 3.22817 13.9734 4.45005V9.01411C13.9734 10.236 14.9796 11.2422 16.2015 11.2422H20.7656C21.9875 11.2422 22.9937 10.236 22.9937 9.01411V4.48599C22.9937 3.22817 21.9875 2.22192 20.7656 2.22192ZM21.4125 9.05005C21.4125 9.40942 21.125 9.69692 20.7656 9.69692H16.2015C15.8421 9.69692 15.5546 9.40942 15.5546 9.05005V4.48599C15.5546 4.12661 15.8421 3.83911 16.2015 3.83911H20.7656C21.125 3.83911 21.4125 4.12661 21.4125 4.48599V9.05005Z" fill="#969696"/>
<path d="M8.79841 13.686H4.23435C3.01248 13.686 2.00623 14.6923 2.00623 15.9142V20.4782C2.00623 21.7001 3.01248 22.7063 4.23435 22.7063H8.79841C10.0203 22.7063 11.0265 21.7001 11.0265 20.4782V15.9501C11.0625 14.6923 10.0562 13.686 8.79841 13.686ZM9.44529 20.5142C9.44529 20.8735 9.15779 21.161 8.79841 21.161H4.23435C3.87498 21.161 3.58748 20.8735 3.58748 20.5142V15.9501C3.58748 15.5907 3.87498 15.3032 4.23435 15.3032H8.79841C9.15779 15.3032 9.44529 15.5907 9.44529 15.9501V20.5142Z" fill="#969696"/>
<path d="M20.7656 13.686H16.2015C14.9796 13.686 13.9734 14.6923 13.9734 15.9142V20.4782C13.9734 21.7001 14.9796 22.7063 16.2015 22.7063H20.7656C21.9875 22.7063 22.9937 21.7001 22.9937 20.4782V15.9501C22.9937 14.6923 21.9875 13.686 20.7656 13.686ZM21.4125 20.5142C21.4125 20.8735 21.125 21.161 20.7656 21.161H16.2015C15.8421 21.161 15.5546 20.8735 15.5546 20.5142V15.9501C15.5546 15.5907 15.8421 15.3032 16.2015 15.3032H20.7656C21.125 15.3032 21.4125 15.5907 21.4125 15.9501V20.5142Z" fill="#969696"/>
</svg>
