<svg width="28" height="28" viewBox="0 0 28 28" fill="none" xmlns="http://www.w3.org/2000/svg">
<g clip-path="url(#clip0_2_3595)">
<path d="M7.46671 10.7334H7.70004C8.59837 10.7334 9.33337 11.4684 9.33337 12.3667V20.5334C9.33337 21.4317 8.59837 22.1667 7.70004 22.1667H7.46671C6.56837 22.1667 5.83337 21.4317 5.83337 20.5334V12.3667C5.83337 11.4684 6.56837 10.7334 7.46671 10.7334ZM14 5.83337C14.8984 5.83337 15.6334 6.56837 15.6334 7.46671V20.5334C15.6334 21.4317 14.8984 22.1667 14 22.1667C13.1017 22.1667 12.3667 21.4317 12.3667 20.5334V7.46671C12.3667 6.56837 13.1017 5.83337 14 5.83337ZM20.5334 15.1667C21.4317 15.1667 22.1667 15.9017 22.1667 16.8V20.5334C22.1667 21.4317 21.4317 22.1667 20.5334 22.1667C19.635 22.1667 18.9 21.4317 18.9 20.5334V16.8C18.9 15.9017 19.635 15.1667 20.5334 15.1667Z" fill="#969696"/>
</g>
<defs>
<clipPath id="clip0_2_3595">
<rect width="28" height="28" fill="white"/>
</clipPath>
</defs>
</svg>
